<svg width="65" height="55" version="1.1" xmlns="http://www.w3.org/2000/svg" desc="Created with imagetracer.js version 1.2.6" ><path fill="rgb(106,248,231)" stroke="rgb(106,248,231)" stroke-width="1" opacity="0.6784313725490196" d="M 30.5 0 Q 50.2 -0.2 57 12.5 L 63 25 L 59 24 L 58.5 26 L 58 18.5 L 47.5 6 L 41.5 3 L 30.5 1 L 18.5 7 L 12 13.5 L 10.5 16 Q 8.3 16.8 9 14.5 L 17.5 5 L 22.5 2 L 30.5 0 Z " /><path fill="rgb(106,248,231)" stroke="rgb(106,248,231)" stroke-width="1" opacity="0.6784313725490196" d="M 24 13 L 34.5 13 L 35 15 L 32 15.5 L 32 29.5 L 31 29.5 Q 32.5 24.3 28 26 L 27.5 31 L 27 20.5 L 27 18.5 L 27 15 Q 22.9 16.3 24 13 Z " /><path fill="rgb(106,248,231)" stroke="rgb(106,248,231)" stroke-width="1" opacity="0.6784313725490196" d="M 5.5 17 L 4 19.5 L 1.5 25 L 1 22.5 L 5.5 17 Z " /><path fill="rgb(106,248,231)" stroke="rgb(106,248,231)" stroke-width="1" opacity="0.6784313725490196" d="M 55.5 23 L 56 29.5 L 55 29.5 L 55.5 23 Z " /><path fill="rgb(106,248,231)" stroke="rgb(106,248,231)" stroke-width="1" opacity="0.6784313725490196" d="M 11.5 27 L 8.5 31 L 0.5 34 L 1 32.5 L 3 28 L 10.5 28 L 11.5 27 Z " /><path fill="rgb(106,248,231)" stroke="rgb(106,248,231)" stroke-width="1" opacity="0.6784313725490196" d="M 64.5 34 L 65 37.5 Q 63.5 44.4 58.5 48 L 61 44.5 L 59 38.5 L 64.5 34 Z " /><path fill="rgb(106,248,231)" stroke="rgb(106,248,231)" stroke-width="1" opacity="0.6784313725490196" d="M 53.5 37 L 50 41.5 L 49.5 43 L 49 41.5 L 53.5 37 Z " /><path fill="rgb(106,248,231)" stroke="rgb(106,248,231)" stroke-width="1" opacity="0.6784313725490196" d="M 28 53 L 36.5 54 L 39 53 L 38.5 55 L 28 55 L 28 53 Z " /><path fill="rgb(0,0,0)" stroke="rgb(0,0,0)" stroke-width="1" opacity="0" d="M 0 0 L 30 0.5 Q 16.5 2 11 11.5 L 9 16 L 3 19.5 L 0.5 26 L 0 0 Z " /><path fill="rgb(0,0,0)" stroke="rgb(0,0,0)" stroke-width="1" opacity="0" d="M 38.5 0 L 65 0 L 65 34 Q 61.2 35.5 62 32.5 L 64 26.5 L 57 12.5 L 48.5 4 L 38.5 1 L 38.5 0 Z " /><path fill="rgb(0,0,0)" stroke="rgb(0,0,0)" stroke-width="1" opacity="0" d="M 29.5 2 L 41.5 3 Q 50.3 6.3 55 13.5 L 57 19.5 Q 54 22.5 55 29.5 L 59 34.5 Q 51.9 35.9 49 41.5 L 48 48.5 L 46.5 50 Q 40.3 54.8 27.5 53 Q 19 50.5 14 44.5 Q 9.3 39.7 8 31.5 Q 15.7 27.8 14 16 Q 11.3 17.1 12 14.5 L 18.5 7 L 29.5 2 Z M 24 13 Q 23 16 27 15 L 27 39 L 24 39 L 25 41 L 45 41 L 45 33 L 43 32 Q 44 36 41 38 L 41 39 L 32 39 L 32 16 L 35 15 L 35 13 L 24 13 Z " /><path fill="rgb(0,0,0)" stroke="rgb(0,0,0)" stroke-width="1" opacity="0" d="M 5.5 32 L 10 42.5 L 16.5 50 L 27 54.5 L 0 55 L 0 34.5 L 2.5 34 L 5.5 32 Z " /><path fill="rgb(0,0,0)" stroke="rgb(0,0,0)" stroke-width="1" opacity="0" d="M 64.5 38 L 65 55 L 40 54.5 Q 46.7 54.2 49.5 50 L 55.5 50 L 62 44.5 L 64.5 38 Z " /><path fill="rgb(38,205,243)" stroke="rgb(38,205,243)" stroke-width="1" opacity="0.9254901960784314" d="M 8.5 16 L 10 16.5 L 8 19.5 L 9.5 20 L 13 19 Q 14.3 25.5 10.5 28 Q 5 29.5 3.5 27 L 1.5 31 L 0 28.5 Q 1.5 20.9 6.5 17 L 8.5 16 Z " /><path fill="rgb(38,205,243)" stroke="rgb(38,205,243)" stroke-width="1" opacity="0.9254901960784314" d="M 57.5 19 L 58.5 26 L 59 24 L 63 25 Q 64.5 30.4 61.5 32 L 59 30.5 L 58.5 28 L 57.5 32 L 56 30.5 L 56 21.5 L 57.5 19 Z " /><path fill="rgb(38,205,243)" stroke="rgb(38,205,243)" stroke-width="1" opacity="0.9254901960784314" d="M 28 26 Q 32.5 24.3 31 29.5 Q 33.2 30.7 32 35.5 L 31 35.5 Q 31.7 32.5 28 34 L 27.5 37 L 27 31.5 L 28 26 Z " /><path fill="rgb(38,205,243)" stroke="rgb(38,205,243)" stroke-width="1" opacity="0.9254901960784314" d="M 7.5 31 L 11 40.5 L 9 39.5 Q 6 36.1 7.5 31 Z " /><path fill="rgb(38,205,243)" stroke="rgb(38,205,243)" stroke-width="1" opacity="0.9254901960784314" d="M 62.5 34 L 60.5 37 L 58 38.5 L 60 39 L 61 44.5 Q 58.4 49.8 52 50 Q 50.8 44.1 55 42.5 L 53.5 42 L 49 45.5 Q 49.7 39.2 54.5 37 L 62.5 34 Z " /><path fill="rgb(38,205,243)" stroke="rgb(38,205,243)" stroke-width="1" opacity="0.9254901960784314" d="M 26.5 39 L 30 40.5 L 25.5 41 L 26.5 39 Z " /><path fill="rgb(38,205,243)" stroke="rgb(38,205,243)" stroke-width="1" opacity="0.9254901960784314" d="M 45.5 51 L 44.5 53 L 42 52.5 L 45.5 51 Z " /><path fill="rgb(38,205,243)" stroke="rgb(38,205,243)" stroke-width="1" opacity="0.9254901960784314" d="M 23.5 52 L 28 53.5 L 26.5 54 L 23.5 53 L 23.5 52 Z " /><path fill="rgb(9,84,212)" stroke="rgb(9,84,212)" stroke-width="1" opacity="0.8431372549019608" d="M 10.5 16 L 13 16.5 Q 14.3 20.3 10.5 19 L 9 19.5 L 10.5 16 Z " /><path fill="rgb(9,84,212)" stroke="rgb(9,84,212)" stroke-width="1" opacity="0.8431372549019608" d="M 58.5 30 L 61 33.5 L 60 33.5 L 59.5 32 L 58 32.5 L 58.5 30 Z " /><path fill="rgb(9,84,212)" stroke="rgb(9,84,212)" stroke-width="1" opacity="0.8431372549019608" d="M 43 33 L 45 33.5 L 45 40 L 42.5 41 L 30.5 41 L 27 40 L 28 34 Q 31.7 32.5 31 35.5 L 32 39 L 40.5 39 L 43 36.5 L 43 33 Z " /><path fill="rgb(9,84,212)" stroke="rgb(9,84,212)" stroke-width="1" opacity="0.8431372549019608" d="M 10.5 41 L 21 50.5 L 19.5 51 L 11 43.5 L 10.5 41 Z " /><path fill="rgb(9,84,212)" stroke="rgb(9,84,212)" stroke-width="1" opacity="0.8431372549019608" d="M 53.5 42 L 51 45.5 L 52 46.5 Q 53.8 51.8 48.5 50 L 46.5 51 L 46.5 50 L 50 47.5 L 49 46.5 L 53.5 42 Z " /><path fill="rgb(22,149,228)" stroke="rgb(22,149,228)" stroke-width="1" opacity="0.2901960784313726" d="M 11.5 15 L 12 16.5 L 8 19.5 L 11.5 15 Z " /><path fill="rgb(22,149,228)" stroke="rgb(22,149,228)" stroke-width="1" opacity="0.2901960784313726" d="M 13.5 16 L 14 23.5 L 13 23.5 L 13.5 16 Z " /><path fill="rgb(22,149,228)" stroke="rgb(22,149,228)" stroke-width="1" opacity="0.2901960784313726" d="M 7.5 21 L 6 23.5 L 4.5 26 L 5 24.5 L 7.5 21 Z " /><path fill="rgb(22,149,228)" stroke="rgb(22,149,228)" stroke-width="1" opacity="0.2901960784313726" d="M 0.5 30 L 1 32.5 L 0 32.5 L 0.5 30 Z " /><path fill="rgb(22,149,228)" stroke="rgb(22,149,228)" stroke-width="1" opacity="0.2901960784313726" d="M 56.5 31 Q 58.3 34.1 60 32.5 L 60.5 34 L 62.5 31 L 62 32.5 Q 63.3 36.3 59.5 35 L 56.5 31 Z " /><path fill="rgb(22,149,228)" stroke="rgb(22,149,228)" stroke-width="1" opacity="0.2901960784313726" d="M 9.5 36 L 10 37.5 L 8 38.5 L 9.5 36 Z " /><path fill="rgb(22,149,228)" stroke="rgb(22,149,228)" stroke-width="1" opacity="0.2901960784313726" d="M 42.5 36 L 41.5 38 L 42.5 36 Z " /><path fill="rgb(22,149,228)" stroke="rgb(22,149,228)" stroke-width="1" opacity="0.2901960784313726" d="M 59.5 37 L 48 49.5 Q 50.3 50.8 47.5 52 L 45.5 53 L 43 51.5 L 45.5 50 L 47.5 51 L 48 48.5 L 48.5 44 L 49.5 47 L 59.5 37 Z " /><path fill="rgb(22,149,228)" stroke="rgb(22,149,228)" stroke-width="1" opacity="0.2901960784313726" d="M 10.5 39 L 14 43.5 L 10 42.5 L 11 40.5 L 9 40.5 L 10.5 39 Z " /><path fill="rgb(22,149,228)" stroke="rgb(22,149,228)" stroke-width="1" opacity="0.2901960784313726" d="M 24 39 L 26 39.5 L 24 40.5 L 24 39 Z " /><path fill="rgb(22,149,228)" stroke="rgb(22,149,228)" stroke-width="1" opacity="0.2901960784313726" d="M 12.5 45 L 16.5 50 L 12.5 45 Z " /><path fill="rgb(22,149,228)" stroke="rgb(22,149,228)" stroke-width="1" opacity="0.2901960784313726" d="M 17.5 47 L 18.5 49 L 17.5 47 Z " /><path fill="rgb(22,149,228)" stroke="rgb(22,149,228)" stroke-width="1" opacity="0.2901960784313726" d="M 18.5 50 L 20.5 51 L 22 50.5 L 21.5 52 L 23.5 51 L 22.5 53 Q 18.5 52.5 18.5 50 Z " /><path fill="rgb(22,149,228)" stroke="rgb(22,149,228)" stroke-width="1" opacity="0.2901960784313726" d="M 40.5 52 L 44 53.5 L 42.5 54 L 40.5 52 Z " /><path fill="rgb(22,149,228)" stroke="rgb(22,149,228)" stroke-width="1" opacity="0.2901960784313726" d="M 31.5 53 L 37 53.5 L 31.5 54 L 31.5 53 Z " /></svg>